<?xml version="1.0" encoding="UTF-8" standalone="no"?>
<!-- Created with Inkscape (http://www.inkscape.org/) -->

<svg
   version="1.1"
   id="svg1"
   width="301.28113"
   height="233.95366"
   viewBox="0 0 301.28113 233.95366"
   xmlns="http://www.w3.org/2000/svg"
   xmlns:svg="http://www.w3.org/2000/svg">
  <defs
     id="defs1" />
  <g
     id="g1"
     transform="translate(0.32836664,0.43237197)">
    <path
       id="path1"
       d="M -0.32836663,-0.43237196 H 300.95277 V 233.52128 H -0.32836663 Z"
       style="fill:#ffffff;fill-opacity:1;fill-rule:evenodd;stroke:none" />
    <path
       id="path2"
       d="M -0.32836663,-0.43237196 H 300.95277 V 233.52128 H -0.32836663 Z"
       style="fill:#ffffff;fill-opacity:1;fill-rule:evenodd;stroke:none" />
    <path
       id="path3"
       d="M 25.713115,214.34551 H 294.70736 V 1.9199865 H 25.713115 Z"
       style="fill:#ffffff;fill-opacity:1;fill-rule:evenodd;stroke:none" />
    <path
       id="path4"
       d="M 40.164818,205.95152 H 279.44458"
       style="fill:none;stroke:#262626;stroke-width:0.593452;stroke-linecap:square;stroke-linejoin:round;stroke-miterlimit:10;stroke-dasharray:none;stroke-opacity:1"
       transform="matrix(1.1241833,0,0,1.1247772,-19.439483,-17.30403)" />
    <path
       id="path5"
       d="M 40.164818,17.091411 H 279.44458"
       style="fill:none;stroke:#262626;stroke-width:0.593452;stroke-linecap:square;stroke-linejoin:round;stroke-miterlimit:10;stroke-dasharray:none;stroke-opacity:1"
       transform="matrix(1.1241833,0,0,1.1247772,-19.439483,-17.30403)" />
    <path
       id="path6"
       d="m 40.164818,205.95152 v -2.39281"
       style="fill:none;stroke:#262626;stroke-width:0.593452;stroke-linecap:square;stroke-linejoin:round;stroke-miterlimit:10;stroke-dasharray:none;stroke-opacity:1"
       transform="matrix(1.1241833,0,0,1.1247772,-19.439483,-17.30403)" />
    <path
       id="path7"
       d="m 110.14967,205.95152 v -2.39281"
       style="fill:none;stroke:#262626;stroke-width:0.593452;stroke-linecap:square;stroke-linejoin:round;stroke-miterlimit:10;stroke-dasharray:none;stroke-opacity:1"
       transform="matrix(1.1241833,0,0,1.1247772,-19.439483,-17.30403)" />
    <path
       id="path8"
       d="m 159.8047,205.95152 v -2.39281"
       style="fill:none;stroke:#262626;stroke-width:0.593452;stroke-linecap:square;stroke-linejoin:round;stroke-miterlimit:10;stroke-dasharray:none;stroke-opacity:1"
       transform="matrix(1.1241833,0,0,1.1247772,-19.439483,-17.30403)" />
    <path
       id="path9"
       d="m 198.32016,205.95152 v -2.39281"
       style="fill:none;stroke:#262626;stroke-width:0.593452;stroke-linecap:square;stroke-linejoin:round;stroke-miterlimit:10;stroke-dasharray:none;stroke-opacity:1"
       transform="matrix(1.1241833,0,0,1.1247772,-19.439483,-17.30403)" />
    <path
       id="path10"
       d="m 229.78955,205.95152 v -2.39281"
       style="fill:none;stroke:#262626;stroke-width:0.593452;stroke-linecap:square;stroke-linejoin:round;stroke-miterlimit:10;stroke-dasharray:none;stroke-opacity:1"
       transform="matrix(1.1241833,0,0,1.1247772,-19.439483,-17.30403)" />
    <path
       id="path11"
       d="m 256.39657,205.95152 v -2.39281"
       style="fill:none;stroke:#262626;stroke-width:0.593452;stroke-linecap:square;stroke-linejoin:round;stroke-miterlimit:10;stroke-dasharray:none;stroke-opacity:1"
       transform="matrix(1.1241833,0,0,1.1247772,-19.439483,-17.30403)" />
    <path
       id="path12"
       d="m 279.44458,205.95152 v -2.39281"
       style="fill:none;stroke:#262626;stroke-width:0.593452;stroke-linecap:square;stroke-linejoin:round;stroke-miterlimit:10;stroke-dasharray:none;stroke-opacity:1"
       transform="matrix(1.1241833,0,0,1.1247772,-19.439483,-17.30403)" />
    <path
       id="path13"
       d="m 40.164818,17.091411 v 2.392798"
       style="fill:none;stroke:#262626;stroke-width:0.593452;stroke-linecap:square;stroke-linejoin:round;stroke-miterlimit:10;stroke-dasharray:none;stroke-opacity:1"
       transform="matrix(1.1241833,0,0,1.1247772,-19.439483,-17.30403)" />
    <path
       id="path14"
       d="m 110.14967,17.091411 v 2.392798"
       style="fill:none;stroke:#262626;stroke-width:0.593452;stroke-linecap:square;stroke-linejoin:round;stroke-miterlimit:10;stroke-dasharray:none;stroke-opacity:1"
       transform="matrix(1.1241833,0,0,1.1247772,-19.439483,-17.30403)" />
    <path
       id="path15"
       d="m 159.8047,17.091411 v 2.392798"
       style="fill:none;stroke:#262626;stroke-width:0.593452;stroke-linecap:square;stroke-linejoin:round;stroke-miterlimit:10;stroke-dasharray:none;stroke-opacity:1"
       transform="matrix(1.1241833,0,0,1.1247772,-19.439483,-17.30403)" />
    <path
       id="path16"
       d="m 198.32016,17.091411 v 2.392798"
       style="fill:none;stroke:#262626;stroke-width:0.593452;stroke-linecap:square;stroke-linejoin:round;stroke-miterlimit:10;stroke-dasharray:none;stroke-opacity:1"
       transform="matrix(1.1241833,0,0,1.1247772,-19.439483,-17.30403)" />
    <path
       id="path17"
       d="m 229.78955,17.091411 v 2.392798"
       style="fill:none;stroke:#262626;stroke-width:0.593452;stroke-linecap:square;stroke-linejoin:round;stroke-miterlimit:10;stroke-dasharray:none;stroke-opacity:1"
       transform="matrix(1.1241833,0,0,1.1247772,-19.439483,-17.30403)" />
    <path
       id="path18"
       d="m 256.39657,17.091411 v 2.392798"
       style="fill:none;stroke:#262626;stroke-width:0.593452;stroke-linecap:square;stroke-linejoin:round;stroke-miterlimit:10;stroke-dasharray:none;stroke-opacity:1"
       transform="matrix(1.1241833,0,0,1.1247772,-19.439483,-17.30403)" />
    <path
       id="path19"
       d="m 279.44458,17.091411 v 2.392798"
       style="fill:none;stroke:#262626;stroke-width:0.593452;stroke-linecap:square;stroke-linejoin:round;stroke-miterlimit:10;stroke-dasharray:none;stroke-opacity:1"
       transform="matrix(1.1241833,0,0,1.1247772,-19.439483,-17.30403)" />
    <path
       id="path20"
       d="m 56.615726,205.95152 v -1.19639"
       style="fill:none;stroke:#262626;stroke-width:0.593452;stroke-linecap:square;stroke-linejoin:round;stroke-miterlimit:10;stroke-dasharray:none;stroke-opacity:1"
       transform="matrix(1.1241833,0,0,1.1247772,-19.439483,-17.30403)" />
    <path
       id="path21"
       d="m 71.634224,205.95152 v -1.19639"
       style="fill:none;stroke:#262626;stroke-width:0.593452;stroke-linecap:square;stroke-linejoin:round;stroke-miterlimit:10;stroke-dasharray:none;stroke-opacity:1"
       transform="matrix(1.1241833,0,0,1.1247772,-19.439483,-17.30403)" />
    <path
       id="path22"
       d="m 85.449913,205.95152 v -1.19639"
       style="fill:none;stroke:#262626;stroke-width:0.593452;stroke-linecap:square;stroke-linejoin:round;stroke-miterlimit:10;stroke-dasharray:none;stroke-opacity:1"
       transform="matrix(1.1241833,0,0,1.1247772,-19.439483,-17.30403)" />
    <path
       id="path23"
       d="m 98.241226,205.95152 v -1.19639"
       style="fill:none;stroke:#262626;stroke-width:0.593452;stroke-linecap:square;stroke-linejoin:round;stroke-miterlimit:10;stroke-dasharray:none;stroke-opacity:1"
       transform="matrix(1.1241833,0,0,1.1247772,-19.439483,-17.30403)" />
    <path
       id="path24"
       d="m 121.28927,205.95152 v -1.19639"
       style="fill:none;stroke:#262626;stroke-width:0.593452;stroke-linecap:square;stroke-linejoin:round;stroke-miterlimit:10;stroke-dasharray:none;stroke-opacity:1"
       transform="matrix(1.1241833,0,0,1.1247772,-19.439483,-17.30403)" />
    <path
       id="path25"
       d="m 131.75331,205.95152 v -1.19639"
       style="fill:none;stroke:#262626;stroke-width:0.593452;stroke-linecap:square;stroke-linejoin:round;stroke-miterlimit:10;stroke-dasharray:none;stroke-opacity:1"
       transform="matrix(1.1241833,0,0,1.1247772,-19.439483,-17.30403)" />
    <path
       id="path26"
       d="m 141.61906,205.95152 v -1.19639"
       style="fill:none;stroke:#262626;stroke-width:0.593452;stroke-linecap:square;stroke-linejoin:round;stroke-miterlimit:10;stroke-dasharray:none;stroke-opacity:1"
       transform="matrix(1.1241833,0,0,1.1247772,-19.439483,-17.30403)" />
    <path
       id="path27"
       d="m 150.95129,205.95152 v -1.19639"
       style="fill:none;stroke:#262626;stroke-width:0.593452;stroke-linecap:square;stroke-linejoin:round;stroke-miterlimit:10;stroke-dasharray:none;stroke-opacity:1"
       transform="matrix(1.1241833,0,0,1.1247772,-19.439483,-17.30403)" />
    <path
       id="path28"
       d="m 168.22607,205.95152 v -1.19639"
       style="fill:none;stroke:#262626;stroke-width:0.593452;stroke-linecap:square;stroke-linejoin:round;stroke-miterlimit:10;stroke-dasharray:none;stroke-opacity:1"
       transform="matrix(1.1241833,0,0,1.1247772,-19.439483,-17.30403)" />
    <path
       id="path29"
       d="m 176.25561,205.95152 v -1.19639"
       style="fill:none;stroke:#262626;stroke-width:0.593452;stroke-linecap:square;stroke-linejoin:round;stroke-miterlimit:10;stroke-dasharray:none;stroke-opacity:1"
       transform="matrix(1.1241833,0,0,1.1247772,-19.439483,-17.30403)" />
    <path
       id="path30"
       d="m 183.92815,205.95152 v -1.19639"
       style="fill:none;stroke:#262626;stroke-width:0.593452;stroke-linecap:square;stroke-linejoin:round;stroke-miterlimit:10;stroke-dasharray:none;stroke-opacity:1"
       transform="matrix(1.1241833,0,0,1.1247772,-19.439483,-17.30403)" />
    <path
       id="path31"
       d="m 191.27412,205.95152 v -1.19639"
       style="fill:none;stroke:#262626;stroke-width:0.593452;stroke-linecap:square;stroke-linejoin:round;stroke-miterlimit:10;stroke-dasharray:none;stroke-opacity:1"
       transform="matrix(1.1241833,0,0,1.1247772,-19.439483,-17.30403)" />
    <path
       id="path32"
       d="m 205.0898,205.95152 v -1.19639"
       style="fill:none;stroke:#262626;stroke-width:0.593452;stroke-linecap:square;stroke-linejoin:round;stroke-miterlimit:10;stroke-dasharray:none;stroke-opacity:1"
       transform="matrix(1.1241833,0,0,1.1247772,-19.439483,-17.30403)" />
    <path
       id="path33"
       d="m 211.60393,205.95152 v -1.19639"
       style="fill:none;stroke:#262626;stroke-width:0.593452;stroke-linecap:square;stroke-linejoin:round;stroke-miterlimit:10;stroke-dasharray:none;stroke-opacity:1"
       transform="matrix(1.1241833,0,0,1.1247772,-19.439483,-17.30403)" />
    <path
       id="path34"
       d="m 217.88112,205.95152 v -1.19639"
       style="fill:none;stroke:#262626;stroke-width:0.593452;stroke-linecap:square;stroke-linejoin:round;stroke-miterlimit:10;stroke-dasharray:none;stroke-opacity:1"
       transform="matrix(1.1241833,0,0,1.1247772,-19.439483,-17.30403)" />
    <path
       id="path35"
       d="m 223.93803,205.95152 v -1.19639"
       style="fill:none;stroke:#262626;stroke-width:0.593452;stroke-linecap:square;stroke-linejoin:round;stroke-miterlimit:10;stroke-dasharray:none;stroke-opacity:1"
       transform="matrix(1.1241833,0,0,1.1247772,-19.439483,-17.30403)" />
    <path
       id="path36"
       d="m 235.4492,205.95152 v -1.19639"
       style="fill:none;stroke:#262626;stroke-width:0.593452;stroke-linecap:square;stroke-linejoin:round;stroke-miterlimit:10;stroke-dasharray:none;stroke-opacity:1"
       transform="matrix(1.1241833,0,0,1.1247772,-19.439483,-17.30403)" />
    <path
       id="path37"
       d="m 240.92914,205.95152 v -1.19639"
       style="fill:none;stroke:#262626;stroke-width:0.593452;stroke-linecap:square;stroke-linejoin:round;stroke-miterlimit:10;stroke-dasharray:none;stroke-opacity:1"
       transform="matrix(1.1241833,0,0,1.1247772,-19.439483,-17.30403)" />
    <path
       id="path38"
       d="m 246.24045,205.95152 v -1.19639"
       style="fill:none;stroke:#262626;stroke-width:0.593452;stroke-linecap:square;stroke-linejoin:round;stroke-miterlimit:10;stroke-dasharray:none;stroke-opacity:1"
       transform="matrix(1.1241833,0,0,1.1247772,-19.439483,-17.30403)" />
    <path
       id="path39"
       d="m 251.3932,205.95152 v -1.19639"
       style="fill:none;stroke:#262626;stroke-width:0.593452;stroke-linecap:square;stroke-linejoin:round;stroke-miterlimit:10;stroke-dasharray:none;stroke-opacity:1"
       transform="matrix(1.1241833,0,0,1.1247772,-19.439483,-17.30403)" />
    <path
       id="path40"
       d="m 261.25897,205.95152 v -1.19639"
       style="fill:none;stroke:#262626;stroke-width:0.593452;stroke-linecap:square;stroke-linejoin:round;stroke-miterlimit:10;stroke-dasharray:none;stroke-opacity:1"
       transform="matrix(1.1241833,0,0,1.1247772,-19.439483,-17.30403)" />
    <path
       id="path41"
       d="m 265.98813,205.95152 v -1.19639"
       style="fill:none;stroke:#262626;stroke-width:0.593452;stroke-linecap:square;stroke-linejoin:round;stroke-miterlimit:10;stroke-dasharray:none;stroke-opacity:1"
       transform="matrix(1.1241833,0,0,1.1247772,-19.439483,-17.30403)" />
    <path
       id="path42"
       d="m 270.59119,205.95152 v -1.19639"
       style="fill:none;stroke:#262626;stroke-width:0.593452;stroke-linecap:square;stroke-linejoin:round;stroke-miterlimit:10;stroke-dasharray:none;stroke-opacity:1"
       transform="matrix(1.1241833,0,0,1.1247772,-19.439483,-17.30403)" />
    <path
       id="path43"
       d="m 275.07465,205.95152 v -1.19639"
       style="fill:none;stroke:#262626;stroke-width:0.593452;stroke-linecap:square;stroke-linejoin:round;stroke-miterlimit:10;stroke-dasharray:none;stroke-opacity:1"
       transform="matrix(1.1241833,0,0,1.1247772,-19.439483,-17.30403)" />
    <path
       id="path44"
       d="m 56.615726,17.091411 v 1.1964"
       style="fill:none;stroke:#262626;stroke-width:0.593452;stroke-linecap:square;stroke-linejoin:round;stroke-miterlimit:10;stroke-dasharray:none;stroke-opacity:1"
       transform="matrix(1.1241833,0,0,1.1247772,-19.439483,-17.30403)" />
    <path
       id="path45"
       d="m 71.634224,17.091411 v 1.1964"
       style="fill:none;stroke:#262626;stroke-width:0.593452;stroke-linecap:square;stroke-linejoin:round;stroke-miterlimit:10;stroke-dasharray:none;stroke-opacity:1"
       transform="matrix(1.1241833,0,0,1.1247772,-19.439483,-17.30403)" />
    <path
       id="path46"
       d="m 85.449913,17.091411 v 1.1964"
       style="fill:none;stroke:#262626;stroke-width:0.593452;stroke-linecap:square;stroke-linejoin:round;stroke-miterlimit:10;stroke-dasharray:none;stroke-opacity:1"
       transform="matrix(1.1241833,0,0,1.1247772,-19.439483,-17.30403)" />
    <path
       id="path47"
       d="m 98.241226,17.091411 v 1.1964"
       style="fill:none;stroke:#262626;stroke-width:0.593452;stroke-linecap:square;stroke-linejoin:round;stroke-miterlimit:10;stroke-dasharray:none;stroke-opacity:1"
       transform="matrix(1.1241833,0,0,1.1247772,-19.439483,-17.30403)" />
    <path
       id="path48"
       d="m 121.28927,17.091411 v 1.1964"
       style="fill:none;stroke:#262626;stroke-width:0.593452;stroke-linecap:square;stroke-linejoin:round;stroke-miterlimit:10;stroke-dasharray:none;stroke-opacity:1"
       transform="matrix(1.1241833,0,0,1.1247772,-19.439483,-17.30403)" />
    <path
       id="path49"
       d="m 131.75331,17.091411 v 1.1964"
       style="fill:none;stroke:#262626;stroke-width:0.593452;stroke-linecap:square;stroke-linejoin:round;stroke-miterlimit:10;stroke-dasharray:none;stroke-opacity:1"
       transform="matrix(1.1241833,0,0,1.1247772,-19.439483,-17.30403)" />
    <path
       id="path50"
       d="m 141.61906,17.091411 v 1.1964"
       style="fill:none;stroke:#262626;stroke-width:0.593452;stroke-linecap:square;stroke-linejoin:round;stroke-miterlimit:10;stroke-dasharray:none;stroke-opacity:1"
       transform="matrix(1.1241833,0,0,1.1247772,-19.439483,-17.30403)" />
    <path
       id="path51"
       d="m 150.95129,17.091411 v 1.1964"
       style="fill:none;stroke:#262626;stroke-width:0.593452;stroke-linecap:square;stroke-linejoin:round;stroke-miterlimit:10;stroke-dasharray:none;stroke-opacity:1"
       transform="matrix(1.1241833,0,0,1.1247772,-19.439483,-17.30403)" />
    <path
       id="path52"
       d="m 168.22607,17.091411 v 1.1964"
       style="fill:none;stroke:#262626;stroke-width:0.593452;stroke-linecap:square;stroke-linejoin:round;stroke-miterlimit:10;stroke-dasharray:none;stroke-opacity:1"
       transform="matrix(1.1241833,0,0,1.1247772,-19.439483,-17.30403)" />
    <path
       id="path53"
       d="m 176.25561,17.091411 v 1.1964"
       style="fill:none;stroke:#262626;stroke-width:0.593452;stroke-linecap:square;stroke-linejoin:round;stroke-miterlimit:10;stroke-dasharray:none;stroke-opacity:1"
       transform="matrix(1.1241833,0,0,1.1247772,-19.439483,-17.30403)" />
    <path
       id="path54"
       d="m 183.92815,17.091411 v 1.1964"
       style="fill:none;stroke:#262626;stroke-width:0.593452;stroke-linecap:square;stroke-linejoin:round;stroke-miterlimit:10;stroke-dasharray:none;stroke-opacity:1"
       transform="matrix(1.1241833,0,0,1.1247772,-19.439483,-17.30403)" />
    <path
       id="path55"
       d="m 191.27412,17.091411 v 1.1964"
       style="fill:none;stroke:#262626;stroke-width:0.593452;stroke-linecap:square;stroke-linejoin:round;stroke-miterlimit:10;stroke-dasharray:none;stroke-opacity:1"
       transform="matrix(1.1241833,0,0,1.1247772,-19.439483,-17.30403)" />
    <path
       id="path56"
       d="m 205.0898,17.091411 v 1.1964"
       style="fill:none;stroke:#262626;stroke-width:0.593452;stroke-linecap:square;stroke-linejoin:round;stroke-miterlimit:10;stroke-dasharray:none;stroke-opacity:1"
       transform="matrix(1.1241833,0,0,1.1247772,-19.439483,-17.30403)" />
    <path
       id="path57"
       d="m 211.60393,17.091411 v 1.1964"
       style="fill:none;stroke:#262626;stroke-width:0.593452;stroke-linecap:square;stroke-linejoin:round;stroke-miterlimit:10;stroke-dasharray:none;stroke-opacity:1"
       transform="matrix(1.1241833,0,0,1.1247772,-19.439483,-17.30403)" />
    <path
       id="path58"
       d="m 217.88112,17.091411 v 1.1964"
       style="fill:none;stroke:#262626;stroke-width:0.593452;stroke-linecap:square;stroke-linejoin:round;stroke-miterlimit:10;stroke-dasharray:none;stroke-opacity:1"
       transform="matrix(1.1241833,0,0,1.1247772,-19.439483,-17.30403)" />
    <path
       id="path59"
       d="m 223.93803,17.091411 v 1.1964"
       style="fill:none;stroke:#262626;stroke-width:0.593452;stroke-linecap:square;stroke-linejoin:round;stroke-miterlimit:10;stroke-dasharray:none;stroke-opacity:1"
       transform="matrix(1.1241833,0,0,1.1247772,-19.439483,-17.30403)" />
    <path
       id="path60"
       d="m 235.4492,17.091411 v 1.1964"
       style="fill:none;stroke:#262626;stroke-width:0.593452;stroke-linecap:square;stroke-linejoin:round;stroke-miterlimit:10;stroke-dasharray:none;stroke-opacity:1"
       transform="matrix(1.1241833,0,0,1.1247772,-19.439483,-17.30403)" />
    <path
       id="path61"
       d="m 240.92914,17.091411 v 1.1964"
       style="fill:none;stroke:#262626;stroke-width:0.593452;stroke-linecap:square;stroke-linejoin:round;stroke-miterlimit:10;stroke-dasharray:none;stroke-opacity:1"
       transform="matrix(1.1241833,0,0,1.1247772,-19.439483,-17.30403)" />
    <path
       id="path62"
       d="m 246.24045,17.091411 v 1.1964"
       style="fill:none;stroke:#262626;stroke-width:0.593452;stroke-linecap:square;stroke-linejoin:round;stroke-miterlimit:10;stroke-dasharray:none;stroke-opacity:1"
       transform="matrix(1.1241833,0,0,1.1247772,-19.439483,-17.30403)" />
    <path
       id="path63"
       d="m 251.3932,17.091411 v 1.1964"
       style="fill:none;stroke:#262626;stroke-width:0.593452;stroke-linecap:square;stroke-linejoin:round;stroke-miterlimit:10;stroke-dasharray:none;stroke-opacity:1"
       transform="matrix(1.1241833,0,0,1.1247772,-19.439483,-17.30403)" />
    <path
       id="path64"
       d="m 261.25897,17.091411 v 1.1964"
       style="fill:none;stroke:#262626;stroke-width:0.593452;stroke-linecap:square;stroke-linejoin:round;stroke-miterlimit:10;stroke-dasharray:none;stroke-opacity:1"
       transform="matrix(1.1241833,0,0,1.1247772,-19.439483,-17.30403)" />
    <path
       id="path65"
       d="m 265.98813,17.091411 v 1.1964"
       style="fill:none;stroke:#262626;stroke-width:0.593452;stroke-linecap:square;stroke-linejoin:round;stroke-miterlimit:10;stroke-dasharray:none;stroke-opacity:1"
       transform="matrix(1.1241833,0,0,1.1247772,-19.439483,-17.30403)" />
    <path
       id="path66"
       d="m 270.59119,17.091411 v 1.1964"
       style="fill:none;stroke:#262626;stroke-width:0.593452;stroke-linecap:square;stroke-linejoin:round;stroke-miterlimit:10;stroke-dasharray:none;stroke-opacity:1"
       transform="matrix(1.1241833,0,0,1.1247772,-19.439483,-17.30403)" />
    <path
       id="path67"
       d="m 275.07465,17.091411 v 1.1964"
       style="fill:none;stroke:#262626;stroke-width:0.593452;stroke-linecap:square;stroke-linejoin:round;stroke-miterlimit:10;stroke-dasharray:none;stroke-opacity:1"
       transform="matrix(1.1241833,0,0,1.1247772,-19.439483,-17.30403)" />
    <text
       id="text67"
       xml:space="preserve"
       transform="matrix(1.1241833,0,0,1.1247772,22.340586,230.93333)"><tspan
         id="tspan67"
         style="font-variant:normal;font-weight:normal;font-size:11px;font-family:'Liberation Sans';writing-mode:lr-tb;fill:#262626;fill-opacity:1;fill-rule:nonzero;stroke:none"
         x="0"
         y="0">1</tspan></text>
    <text
       id="text68"
       xml:space="preserve"
       transform="matrix(1.1241833,0,0,1.1247772,95.957562,230.93333)"><tspan
         id="tspan68"
         style="font-variant:normal;font-weight:normal;font-size:11px;font-family:'Liberation Sans';writing-mode:lr-tb;fill:#262626;fill-opacity:1;fill-rule:nonzero;stroke:none"
         x="0"
         dx="0 -0.0066249999 -0.011125"
         y="0">1.5</tspan></text>
    <text
       id="text69"
       xml:space="preserve"
       transform="matrix(1.1241833,0,0,1.1247772,156.83775,230.93333)"><tspan
         id="tspan69"
         style="font-variant:normal;font-weight:normal;font-size:11px;font-family:'Liberation Sans';writing-mode:lr-tb;fill:#262626;fill-opacity:1;fill-rule:nonzero;stroke:none"
         x="0"
         y="0">2</tspan></text>
    <text
       id="text70"
       xml:space="preserve"
       transform="matrix(1.1241833,0,0,1.1247772,195.07736,230.93333)"><tspan
         id="tspan70"
         style="font-variant:normal;font-weight:normal;font-size:11px;font-family:'Liberation Sans';writing-mode:lr-tb;fill:#262626;fill-opacity:1;fill-rule:nonzero;stroke:none"
         x="0"
         dx="0 -0.0066249999 -0.011125"
         y="0">2.5</tspan></text>
    <text
       id="text71"
       xml:space="preserve"
       transform="matrix(1.1241833,0,0,1.1247772,235.51355,230.93333)"><tspan
         id="tspan71"
         style="font-variant:normal;font-weight:normal;font-size:11px;font-family:'Liberation Sans';writing-mode:lr-tb;fill:#262626;fill-opacity:1;fill-rule:nonzero;stroke:none"
         x="0"
         y="0">3</tspan></text>
    <text
       id="text72"
       xml:space="preserve"
       transform="matrix(1.1241833,0,0,1.1247772,260.3659,230.93333)"><tspan
         id="tspan72"
         style="font-variant:normal;font-weight:normal;font-size:11px;font-family:'Liberation Sans';writing-mode:lr-tb;fill:#262626;fill-opacity:1;fill-rule:nonzero;stroke:none"
         x="0"
         dx="0 -0.0066249999 -0.011125"
         y="0">3.5</tspan></text>
    <text
       id="text73"
       xml:space="preserve"
       transform="matrix(1.1241833,0,0,1.1247772,291.33491,230.93333)"><tspan
         id="tspan73"
         style="font-variant:normal;font-weight:normal;font-size:11px;font-family:'Liberation Sans';writing-mode:lr-tb;fill:#262626;fill-opacity:1;fill-rule:nonzero;stroke:none"
         x="0"
         y="0">4</tspan></text>
    <path
       id="path73"
       d="M 40.164818,205.95152 V 17.091411"
       style="fill:none;stroke:#262626;stroke-width:0.593452;stroke-linecap:square;stroke-linejoin:round;stroke-miterlimit:10;stroke-dasharray:none;stroke-opacity:1"
       transform="matrix(1.1241833,0,0,1.1247772,-19.439483,-17.30403)" />
    <path
       id="path74"
       d="M 279.44458,205.95152 V 17.091411"
       style="fill:none;stroke:#262626;stroke-width:0.593452;stroke-linecap:square;stroke-linejoin:round;stroke-miterlimit:10;stroke-dasharray:none;stroke-opacity:1"
       transform="matrix(1.1241833,0,0,1.1247772,-19.439483,-17.30403)" />
    <path
       id="path75"
       d="m 40.164818,205.95152 h 2.392799"
       style="fill:none;stroke:#262626;stroke-width:0.593452;stroke-linecap:square;stroke-linejoin:round;stroke-miterlimit:10;stroke-dasharray:none;stroke-opacity:1"
       transform="matrix(1.1241833,0,0,1.1247772,-19.439483,-17.30403)" />
    <path
       id="path76"
       d="m 40.164818,49.106602 h 2.392799"
       style="fill:none;stroke:#262626;stroke-width:0.593452;stroke-linecap:square;stroke-linejoin:round;stroke-miterlimit:10;stroke-dasharray:none;stroke-opacity:1"
       transform="matrix(1.1241833,0,0,1.1247772,-19.439483,-17.30403)" />
    <path
       id="path77"
       d="m 279.44458,205.95152 h -2.39276"
       style="fill:none;stroke:#262626;stroke-width:0.593452;stroke-linecap:square;stroke-linejoin:round;stroke-miterlimit:10;stroke-dasharray:none;stroke-opacity:1"
       transform="matrix(1.1241833,0,0,1.1247772,-19.439483,-17.30403)" />
    <path
       id="path78"
       d="m 279.44458,49.106602 h -2.39276"
       style="fill:none;stroke:#262626;stroke-width:0.593452;stroke-linecap:square;stroke-linejoin:round;stroke-miterlimit:10;stroke-dasharray:none;stroke-opacity:1"
       transform="matrix(1.1241833,0,0,1.1247772,-19.439483,-17.30403)" />
    <path
       id="path79"
       d="m 40.164818,205.95152 h 1.196403"
       style="fill:none;stroke:#262626;stroke-width:0.593452;stroke-linecap:square;stroke-linejoin:round;stroke-miterlimit:10;stroke-dasharray:none;stroke-opacity:1"
       transform="matrix(1.1241833,0,0,1.1247772,-19.439483,-17.30403)" />
    <path
       id="path80"
       d="m 40.164818,158.73649 h 1.196403"
       style="fill:none;stroke:#262626;stroke-width:0.593452;stroke-linecap:square;stroke-linejoin:round;stroke-miterlimit:10;stroke-dasharray:none;stroke-opacity:1"
       transform="matrix(1.1241833,0,0,1.1247772,-19.439483,-17.30403)" />
    <path
       id="path81"
       d="m 40.164818,131.11746 h 1.196403"
       style="fill:none;stroke:#262626;stroke-width:0.593452;stroke-linecap:square;stroke-linejoin:round;stroke-miterlimit:10;stroke-dasharray:none;stroke-opacity:1"
       transform="matrix(1.1241833,0,0,1.1247772,-19.439483,-17.30403)" />
    <path
       id="path82"
       d="m 40.164818,111.52147 h 1.196403"
       style="fill:none;stroke:#262626;stroke-width:0.593452;stroke-linecap:square;stroke-linejoin:round;stroke-miterlimit:10;stroke-dasharray:none;stroke-opacity:1"
       transform="matrix(1.1241833,0,0,1.1247772,-19.439483,-17.30403)" />
    <path
       id="path83"
       d="m 40.164818,96.321625 h 1.196403"
       style="fill:none;stroke:#262626;stroke-width:0.593452;stroke-linecap:square;stroke-linejoin:round;stroke-miterlimit:10;stroke-dasharray:none;stroke-opacity:1"
       transform="matrix(1.1241833,0,0,1.1247772,-19.439483,-17.30403)" />
    <path
       id="path84"
       d="m 40.164818,83.902443 h 1.196403"
       style="fill:none;stroke:#262626;stroke-width:0.593452;stroke-linecap:square;stroke-linejoin:round;stroke-miterlimit:10;stroke-dasharray:none;stroke-opacity:1"
       transform="matrix(1.1241833,0,0,1.1247772,-19.439483,-17.30403)" />
    <path
       id="path85"
       d="m 40.164818,73.402184 h 1.196403"
       style="fill:none;stroke:#262626;stroke-width:0.593452;stroke-linecap:square;stroke-linejoin:round;stroke-miterlimit:10;stroke-dasharray:none;stroke-opacity:1"
       transform="matrix(1.1241833,0,0,1.1247772,-19.439483,-17.30403)" />
    <path
       id="path86"
       d="m 40.164818,64.306442 h 1.196403"
       style="fill:none;stroke:#262626;stroke-width:0.593452;stroke-linecap:square;stroke-linejoin:round;stroke-miterlimit:10;stroke-dasharray:none;stroke-opacity:1"
       transform="matrix(1.1241833,0,0,1.1247772,-19.439483,-17.30403)" />
    <path
       id="path87"
       d="m 40.164818,56.283432 h 1.196403"
       style="fill:none;stroke:#262626;stroke-width:0.593452;stroke-linecap:square;stroke-linejoin:round;stroke-miterlimit:10;stroke-dasharray:none;stroke-opacity:1"
       transform="matrix(1.1241833,0,0,1.1247772,-19.439483,-17.30403)" />
    <path
       id="path88"
       d="m 40.164818,49.106602 h 1.196403"
       style="fill:none;stroke:#262626;stroke-width:0.593452;stroke-linecap:square;stroke-linejoin:round;stroke-miterlimit:10;stroke-dasharray:none;stroke-opacity:1"
       transform="matrix(1.1241833,0,0,1.1247772,-19.439483,-17.30403)" />
    <path
       id="path89"
       d="M 279.44458,205.95152 H 278.2482"
       style="fill:none;stroke:#262626;stroke-width:0.593452;stroke-linecap:square;stroke-linejoin:round;stroke-miterlimit:10;stroke-dasharray:none;stroke-opacity:1"
       transform="matrix(1.1241833,0,0,1.1247772,-19.439483,-17.30403)" />
    <path
       id="path90"
       d="M 279.44458,158.73649 H 278.2482"
       style="fill:none;stroke:#262626;stroke-width:0.593452;stroke-linecap:square;stroke-linejoin:round;stroke-miterlimit:10;stroke-dasharray:none;stroke-opacity:1"
       transform="matrix(1.1241833,0,0,1.1247772,-19.439483,-17.30403)" />
    <path
       id="path91"
       d="M 279.44458,131.11746 H 278.2482"
       style="fill:none;stroke:#262626;stroke-width:0.593452;stroke-linecap:square;stroke-linejoin:round;stroke-miterlimit:10;stroke-dasharray:none;stroke-opacity:1"
       transform="matrix(1.1241833,0,0,1.1247772,-19.439483,-17.30403)" />
    <path
       id="path92"
       d="M 279.44458,111.52147 H 278.2482"
       style="fill:none;stroke:#262626;stroke-width:0.593452;stroke-linecap:square;stroke-linejoin:round;stroke-miterlimit:10;stroke-dasharray:none;stroke-opacity:1"
       transform="matrix(1.1241833,0,0,1.1247772,-19.439483,-17.30403)" />
    <path
       id="path93"
       d="M 279.44458,96.321625 H 278.2482"
       style="fill:none;stroke:#262626;stroke-width:0.593452;stroke-linecap:square;stroke-linejoin:round;stroke-miterlimit:10;stroke-dasharray:none;stroke-opacity:1"
       transform="matrix(1.1241833,0,0,1.1247772,-19.439483,-17.30403)" />
    <path
       id="path94"
       d="M 279.44458,83.902443 H 278.2482"
       style="fill:none;stroke:#262626;stroke-width:0.593452;stroke-linecap:square;stroke-linejoin:round;stroke-miterlimit:10;stroke-dasharray:none;stroke-opacity:1"
       transform="matrix(1.1241833,0,0,1.1247772,-19.439483,-17.30403)" />
    <path
       id="path95"
       d="M 279.44458,73.402184 H 278.2482"
       style="fill:none;stroke:#262626;stroke-width:0.593452;stroke-linecap:square;stroke-linejoin:round;stroke-miterlimit:10;stroke-dasharray:none;stroke-opacity:1"
       transform="matrix(1.1241833,0,0,1.1247772,-19.439483,-17.30403)" />
    <path
       id="path96"
       d="M 279.44458,64.306442 H 278.2482"
       style="fill:none;stroke:#262626;stroke-width:0.593452;stroke-linecap:square;stroke-linejoin:round;stroke-miterlimit:10;stroke-dasharray:none;stroke-opacity:1"
       transform="matrix(1.1241833,0,0,1.1247772,-19.439483,-17.30403)" />
    <path
       id="path97"
       d="M 279.44458,56.283432 H 278.2482"
       style="fill:none;stroke:#262626;stroke-width:0.593452;stroke-linecap:square;stroke-linejoin:round;stroke-miterlimit:10;stroke-dasharray:none;stroke-opacity:1"
       transform="matrix(1.1241833,0,0,1.1247772,-19.439483,-17.30403)" />
    <path
       id="path98"
       d="M 279.44458,49.106602 H 278.2482"
       style="fill:none;stroke:#262626;stroke-width:0.593452;stroke-linecap:square;stroke-linejoin:round;stroke-miterlimit:10;stroke-dasharray:none;stroke-opacity:1"
       transform="matrix(1.1241833,0,0,1.1247772,-19.439483,-17.30403)" />
    <text
       id="text98"
       xml:space="preserve"
       transform="matrix(1.1241833,0,0,1.1247772,0.79581672,221.14873)"><tspan
         id="tspan98"
         style="font-variant:normal;font-weight:normal;font-size:11px;font-family:'Liberation Sans';writing-mode:lr-tb;fill:#262626;fill-opacity:1;fill-rule:nonzero;stroke:none"
         x="0"
         dx="0 -0.0066249999"
         y="0">10</tspan></text>
    <text
       id="text99"
       xml:space="preserve"
       transform="matrix(1.1241833,0,0,1.1247772,14.286017,215.52485)"><tspan
         id="tspan99"
         style="font-variant:normal;font-weight:normal;font-size:9px;font-family:'Liberation Sans';writing-mode:lr-tb;fill:#262626;fill-opacity:1;fill-rule:nonzero;stroke:none"
         x="0"
         y="0">0</tspan></text>
    <text
       id="text100"
       xml:space="preserve"
       transform="matrix(1.1241833,0,0,1.1247772,0.79581672,44.558715)"><tspan
         id="tspan100"
         style="font-variant:normal;font-weight:normal;font-size:11px;font-family:'Liberation Sans';writing-mode:lr-tb;fill:#262626;fill-opacity:1;fill-rule:nonzero;stroke:none"
         x="0"
         dx="0 -0.0066249999"
         y="0">10</tspan></text>
    <text
       id="text101"
       xml:space="preserve"
       transform="matrix(1.1241833,0,0,1.1247772,14.286017,38.934829)"><tspan
         id="tspan101"
         style="font-variant:normal;font-weight:normal;font-size:9px;font-family:'Liberation Sans';writing-mode:lr-tb;fill:#262626;fill-opacity:1;fill-rule:nonzero;stroke:none"
         x="0"
         y="0">1</tspan></text>
    <path
       id="path101"
       d="M 40.164818,158.73649 159.8047,111.52147 229.78955,64.306442 279.44458,17.091411"
       style="fill:none;stroke:#0072bd;stroke-width:0.593452;stroke-linecap:butt;stroke-linejoin:round;stroke-miterlimit:10;stroke-dasharray:none;stroke-opacity:1"
       transform="matrix(1.1241833,0,0,1.1247772,-19.439483,-17.30403)" />
    <path
       id="path102"
       d="M 40.164818,205.95152 159.8047,131.11746 229.78955,96.321625 279.44458,73.402184"
       style="fill:none;stroke:#d95319;stroke-width:0.593452;stroke-linecap:butt;stroke-linejoin:round;stroke-miterlimit:10;stroke-dasharray:none;stroke-opacity:1"
       transform="matrix(1.1241833,0,0,1.1247772,-19.439483,-17.30403)" />
  </g>
</svg>
